<svg width="120" height="120" viewBox="0 0 120 120" fill="none" xmlns="http://www.w3.org/2000/svg">
<circle cx="60" cy="60" r="60" fill="white"/>
<circle opacity="0.15" cx="60" cy="60" r="45" fill="#00CAEB"/>
<circle opacity="0.15" cx="60" cy="60" r="34" fill="#00CAEB"/>
<g clip-path="url(#clip0_343_314)">
<path d="M75.0078 48.3125H73.4141V44.9922C73.4141 43.8937 72.5204 43 71.4219 43H48.5781C47.4796 43 46.5859 43.8937 46.5859 44.9922V48.3125H44.9922C43.8937 48.3125 43 49.2062 43 50.3047V69.4296C43 70.528 43.8937 71.4217 44.9922 71.4217H56.6797V73.0154H55.4164C54.3179 73.0154 53.4242 73.9091 53.4242 75.0075V76.3359C53.4242 76.7027 53.7215 77 54.0883 77H65.9118C66.2786 77 66.5759 76.7027 66.5759 76.3359V75.0075C66.5759 73.9091 65.6822 73.0154 64.5837 73.0154H63.3203V71.4217H75.0078C76.1063 71.4217 77 70.528 77 69.4296V50.3047C77 49.2062 76.1063 48.3125 75.0078 48.3125ZM75.0078 49.6406C75.374 49.6406 75.6719 49.9385 75.6719 50.3047V65.578H73.4141V49.6406H75.0078ZM48.5781 44.3281H71.4219C71.788 44.3281 72.0859 44.626 72.0859 44.9922V48.3125H47.9141V44.9922C47.9141 44.626 48.212 44.3281 48.5781 44.3281ZM44.9922 49.6406H46.5859V54.6204C46.5859 54.9872 46.8832 55.2845 47.25 55.2845C47.6168 55.2845 47.9141 54.9872 47.9141 54.6204V49.6406H72.0859V65.578H68.6992V63.3896C68.6992 63.0229 68.4019 62.7256 68.0352 62.7256H67.1711C67.0193 62.2027 66.8109 61.7 66.5481 61.2223L67.1593 60.6111C67.4186 60.3518 67.4186 59.9313 67.1593 59.672L65.1432 57.6559C64.8839 57.3966 64.4634 57.3966 64.204 57.6559L63.5928 58.2671C63.1152 58.0043 62.6125 57.7959 62.0896 57.6441V56.7801C62.0896 56.4133 61.7923 56.116 61.4255 56.116H58.5743C58.2076 56.116 57.9103 56.4133 57.9103 56.7801V57.6441C57.3874 57.796 56.8847 58.0043 56.407 58.2671L55.7958 57.6559C55.5365 57.3966 55.116 57.3966 54.8566 57.6559L52.8405 59.672C52.5812 59.9313 52.5812 60.3518 52.8405 60.6111L53.4518 61.2223C53.189 61.6999 52.9806 62.2027 52.8287 62.7256H51.9648C51.5981 62.7256 51.3008 63.0229 51.3008 63.3896V65.578H47.9141V60.597C47.9141 60.2302 47.6168 59.9329 47.25 59.9329C46.8832 59.9329 46.5859 60.2302 46.5859 60.597V65.578H44.3281V50.3047C44.3281 49.9385 44.626 49.6406 44.9922 49.6406ZM54.7569 60.6491L54.2494 60.1415L55.3263 59.0645L55.8339 59.5721C56.0555 59.7935 56.4018 59.8301 56.6647 59.6597C57.2931 59.2522 57.9822 58.9666 58.7129 58.8108C59.0194 58.7455 59.2385 58.4747 59.2385 58.1613V57.444H60.7616V58.1613C60.7616 58.4747 60.9807 58.7455 61.2872 58.8108C62.0178 58.9666 62.7069 59.2521 63.3354 59.6597C63.5984 59.8301 63.9447 59.7936 64.1663 59.5721L64.6738 59.0645L65.7508 60.1415L65.2432 60.6491C65.0217 60.8707 64.9851 61.217 65.1556 61.4799C65.5631 62.1084 65.8487 62.7975 66.0045 63.5281C66.0699 63.8346 66.3406 64.0537 66.654 64.0537H67.3711V65.578H63.2311C63.2902 65.329 63.3207 65.073 63.3207 64.8153C63.3207 62.9842 61.831 61.4945 60 61.4945C58.169 61.4945 56.6793 62.9842 56.6793 64.8153C56.6793 65.073 56.7098 65.329 56.7689 65.578H52.6289V64.0537H53.3462C53.6595 64.0537 53.9303 63.8346 53.9956 63.5281C54.1514 62.7974 54.437 62.1083 54.8445 61.4799C55.015 61.217 54.9785 60.8707 54.7569 60.6491ZM58.0074 64.8153C58.0074 63.7166 58.9012 62.8227 60 62.8227C61.0988 62.8227 61.9926 63.7166 61.9926 64.8153C61.9926 65.0775 61.9395 65.3365 61.8388 65.578H58.1612C58.0605 65.3365 58.0074 65.0775 58.0074 64.8153ZM65.2477 75.0075V75.6719H54.7523V75.0075C54.7523 74.6414 55.0502 74.3435 55.4164 74.3435H64.5837C64.9499 74.3435 65.2477 74.6414 65.2477 75.0075ZM61.9922 73.0154H58.0078V71.4217H61.9922V73.0154ZM75.0078 70.0936H44.9922C44.626 70.0936 44.3281 69.7957 44.3281 69.4296V66.9061H75.6719V69.4296C75.6719 69.7957 75.374 70.0936 75.0078 70.0936Z" fill="#00CAEB"/>
<path d="M61.9922 46.9844H69.1641C69.5308 46.9844 69.8281 46.6871 69.8281 46.3203C69.8281 45.9536 69.5308 45.6562 69.1641 45.6562H61.9922C61.6254 45.6562 61.3281 45.9536 61.3281 46.3203C61.3281 46.6871 61.6254 46.9844 61.9922 46.9844Z" fill="#00CAEB"/>
<path d="M53.7578 46.9844C53.9325 46.9844 54.1038 46.9133 54.2273 46.7898C54.3508 46.6663 54.4219 46.495 54.4219 46.3203C54.4219 46.1457 54.3508 45.9743 54.2273 45.8508C54.1038 45.7273 53.9325 45.6562 53.7578 45.6562C53.5832 45.6562 53.4118 45.7273 53.2883 45.8508C53.1648 45.9743 53.0938 46.1457 53.0938 46.3203C53.0938 46.495 53.1648 46.6663 53.2883 46.7898C53.4118 46.9133 53.5832 46.9844 53.7578 46.9844Z" fill="#00CAEB"/>
<path d="M50.8359 46.9844C51.0106 46.9844 51.1819 46.9133 51.3054 46.7898C51.4289 46.6663 51.5 46.495 51.5 46.3203C51.5 46.1457 51.4289 45.9743 51.3054 45.8508C51.1819 45.7273 51.0106 45.6562 50.8359 45.6562C50.6613 45.6562 50.49 45.7273 50.3664 45.8508C50.2429 45.9743 50.1719 46.1457 50.1719 46.3203C50.1719 46.495 50.2429 46.6663 50.3664 46.7898C50.49 46.9133 50.6613 46.9844 50.8359 46.9844Z" fill="#00CAEB"/>
<path d="M56.6797 46.9844C56.8543 46.9844 57.0257 46.9133 57.1492 46.7898C57.2727 46.6663 57.3438 46.495 57.3438 46.3203C57.3438 46.1457 57.2727 45.9743 57.1492 45.8508C57.0257 45.7273 56.8543 45.6562 56.6797 45.6562C56.505 45.6562 56.3337 45.7273 56.2102 45.8508C56.0867 45.9743 56.0156 46.1457 56.0156 46.3203C56.0156 46.495 56.0867 46.6663 56.2102 46.7898C56.3337 46.9133 56.505 46.9844 56.6797 46.9844Z" fill="#00CAEB"/>
<path d="M50.4375 52.828H52.0178C52.3846 52.828 52.6819 52.5307 52.6819 52.1639C52.6819 51.7972 52.3846 51.4999 52.0178 51.4999H50.4375C50.0707 51.4999 49.7734 51.7972 49.7734 52.1639C49.7734 52.5307 50.0707 52.828 50.4375 52.828Z" fill="#00CAEB"/>
<path d="M54.9395 52.828H61.0314C61.3982 52.828 61.6955 52.5307 61.6955 52.1639C61.6955 51.7972 61.3982 51.4999 61.0314 51.4999H54.9395C54.5727 51.4999 54.2754 51.7972 54.2754 52.1639C54.2754 52.5307 54.5727 52.828 54.9395 52.828Z" fill="#00CAEB"/>
<path d="M50.4375 56.0154H54.2891C54.6558 56.0154 54.9531 55.7181 54.9531 55.3513C54.9531 54.9846 54.6558 54.6873 54.2891 54.6873H50.4375C50.0707 54.6873 49.7734 54.9846 49.7734 55.3513C49.7734 55.7181 50.0707 56.0154 50.4375 56.0154Z" fill="#00CAEB"/>
<path d="M63.9541 52.828H69.563C69.9298 52.828 70.2271 52.5307 70.2271 52.1639C70.2271 51.7972 69.9298 51.4999 69.563 51.4999H63.9541C63.5873 51.4999 63.29 51.7972 63.29 52.1639C63.29 52.5307 63.5873 52.828 63.9541 52.828Z" fill="#00CAEB"/>
<path d="M69.5623 54.6873H65.0176C64.6508 54.6873 64.3535 54.9846 64.3535 55.3513C64.3535 55.7181 64.6508 56.0154 65.0176 56.0154H69.5623C69.9291 56.0154 70.2264 55.7181 70.2264 55.3513C70.2264 54.9846 69.9291 54.6873 69.5623 54.6873Z" fill="#00CAEB"/>
<path d="M47.25 58.2728C47.4246 58.2728 47.596 58.2018 47.7195 58.0783C47.843 57.9547 47.9141 57.7834 47.9141 57.6088C47.9141 57.4341 47.843 57.2628 47.7195 57.1393C47.596 57.0158 47.4246 56.9447 47.25 56.9447C47.0754 56.9447 46.904 57.0158 46.7805 57.1393C46.657 57.2628 46.5859 57.4341 46.5859 57.6088C46.5859 57.7834 46.657 57.9547 46.7805 58.0783C46.904 58.2018 47.0754 58.2728 47.25 58.2728Z" fill="#00CAEB"/>
</g>
<defs>
<clipPath id="clip0_343_314">
<rect width="34" height="34" fill="white" transform="translate(43 43)"/>
</clipPath>
</defs>
</svg>
