<svg width="147" height="156" viewBox="0 0 147 156" fill="none" xmlns="http://www.w3.org/2000/svg">
<rect width="4.08334" height="4.33333" fill="#00CAEB"/>
<rect y="21.6667" width="4.08334" height="4.33333" fill="#00CAEB"/>
<rect y="43.3333" width="4.08334" height="4.33333" fill="#00CAEB"/>
<rect y="65" width="4.08334" height="4.33333" fill="#00CAEB"/>
<rect y="86.6667" width="4.08334" height="4.33333" fill="#00CAEB"/>
<rect y="108.333" width="4.08334" height="4.33333" fill="#00CAEB"/>
<rect y="130" width="4.08334" height="4.33333" fill="#00CAEB"/>
<rect y="151.667" width="4.08334" height="4.33333" fill="#00CAEB"/>
<rect x="20.417" width="4.08334" height="4.33333" fill="#00CAEB"/>
<rect x="20.417" y="21.6667" width="4.08334" height="4.33333" fill="#00CAEB"/>
<rect x="20.417" y="43.3333" width="4.08334" height="4.33333" fill="#00CAEB"/>
<rect x="20.417" y="65" width="4.08334" height="4.33333" fill="#00CAEB"/>
<rect x="20.417" y="86.6667" width="4.08334" height="4.33333" fill="#00CAEB"/>
<rect x="20.417" y="108.333" width="4.08334" height="4.33333" fill="#00CAEB"/>
<rect x="20.417" y="130" width="4.08334" height="4.33333" fill="#00CAEB"/>
<rect x="20.417" y="151.667" width="4.08334" height="4.33333" fill="#00CAEB"/>
<rect x="40.834" width="4.08334" height="4.33333" fill="#00CAEB"/>
<rect x="40.834" y="21.6667" width="4.08334" height="4.33333" fill="#00CAEB"/>
<rect x="40.834" y="43.3333" width="4.08334" height="4.33333" fill="#00CAEB"/>
<rect x="40.834" y="65" width="4.08334" height="4.33333" fill="#00CAEB"/>
<rect x="40.834" y="86.6667" width="4.08334" height="4.33333" fill="#00CAEB"/>
<rect x="40.834" y="108.333" width="4.08334" height="4.33333" fill="#00CAEB"/>
<rect x="40.834" y="130" width="4.08334" height="4.33333" fill="#00CAEB"/>
<rect x="40.834" y="151.667" width="4.08334" height="4.33333" fill="#00CAEB"/>
<rect x="61.25" width="4.08334" height="4.33333" fill="#00CAEB"/>
<rect x="61.25" y="21.6667" width="4.08334" height="4.33333" fill="#00CAEB"/>
<rect x="61.25" y="43.3333" width="4.08334" height="4.33333" fill="#00CAEB"/>
<rect x="61.25" y="65" width="4.08334" height="4.33333" fill="#00CAEB"/>
<rect x="61.25" y="86.6667" width="4.08334" height="4.33333" fill="#00CAEB"/>
<rect x="61.25" y="108.333" width="4.08334" height="4.33333" fill="#00CAEB"/>
<rect x="61.25" y="130" width="4.08334" height="4.33333" fill="#00CAEB"/>
<rect x="61.25" y="151.667" width="4.08334" height="4.33333" fill="#00CAEB"/>
<rect x="81.667" width="4.08334" height="4.33333" fill="#00CAEB"/>
<rect x="81.667" y="21.6667" width="4.08334" height="4.33333" fill="#00CAEB"/>
<rect x="81.667" y="43.3333" width="4.08334" height="4.33333" fill="#00CAEB"/>
<rect x="81.667" y="65" width="4.08334" height="4.33333" fill="#00CAEB"/>
<rect x="81.667" y="86.6667" width="4.08334" height="4.33333" fill="#00CAEB"/>
<rect x="81.667" y="108.333" width="4.08334" height="4.33333" fill="#00CAEB"/>
<rect x="81.667" y="130" width="4.08334" height="4.33333" fill="#00CAEB"/>
<rect x="81.667" y="151.667" width="4.08334" height="4.33333" fill="#00CAEB"/>
<rect x="102.083" width="4.08334" height="4.33333" fill="#00CAEB"/>
<rect x="102.083" y="21.6667" width="4.08334" height="4.33333" fill="#00CAEB"/>
<rect x="102.083" y="43.3333" width="4.08334" height="4.33333" fill="#00CAEB"/>
<rect x="102.083" y="65" width="4.08334" height="4.33333" fill="#00CAEB"/>
<rect x="102.083" y="86.6667" width="4.08334" height="4.33333" fill="#00CAEB"/>
<rect x="102.083" y="108.333" width="4.08334" height="4.33333" fill="#00CAEB"/>
<rect x="102.083" y="130" width="4.08334" height="4.33333" fill="#00CAEB"/>
<rect x="102.083" y="151.667" width="4.08334" height="4.33333" fill="#00CAEB"/>
<rect x="122.501" width="4.08334" height="4.33333" fill="#00CAEB"/>
<rect x="122.501" y="21.6667" width="4.08334" height="4.33333" fill="#00CAEB"/>
<rect x="122.501" y="43.3333" width="4.08334" height="4.33333" fill="#00CAEB"/>
<rect x="122.501" y="65" width="4.08334" height="4.33333" fill="#00CAEB"/>
<rect x="122.501" y="86.6667" width="4.08334" height="4.33333" fill="#00CAEB"/>
<rect x="122.501" y="108.333" width="4.08334" height="4.33333" fill="#00CAEB"/>
<rect x="122.501" y="130" width="4.08334" height="4.33333" fill="#00CAEB"/>
<rect x="122.501" y="151.667" width="4.08334" height="4.33333" fill="#00CAEB"/>
<rect x="142.917" width="4.08334" height="4.33333" fill="#00CAEB"/>
<rect x="142.917" y="21.6667" width="4.08334" height="4.33333" fill="#00CAEB"/>
<rect x="142.917" y="43.3333" width="4.08334" height="4.33333" fill="#00CAEB"/>
<rect x="142.917" y="65" width="4.08334" height="4.33333" fill="#00CAEB"/>
<rect x="142.917" y="86.6667" width="4.08334" height="4.33333" fill="#00CAEB"/>
<rect x="142.917" y="108.333" width="4.08334" height="4.33333" fill="#00CAEB"/>
<rect x="142.917" y="130" width="4.08334" height="4.33333" fill="#00CAEB"/>
<rect x="142.917" y="151.667" width="4.08334" height="4.33333" fill="#00CAEB"/>
</svg>
