<svg width="34" height="34" viewBox="0 0 34 34" fill="none" xmlns="http://www.w3.org/2000/svg">
<g clip-path="url(#clip0_120_59)">
<path d="M11.1891 0.106253C9.49571 0.365236 7.88204 0.929689 6.46758 1.76641C2.92149 3.84492 0.564067 7.4375 0.0660197 11.5082C0.0128947 11.9133 -0.000386527 12.5973 0.0195354 13.3344C0.0593791 14.6891 0.132426 15.0676 0.730082 17.1992C1.24805 19.032 1.32774 19.4371 1.32774 20.3535C1.32774 21.6219 1.08868 22.5582 0.437895 23.8199C0.026176 24.6168 -0.00702716 24.8027 0.212113 25.2344C0.338285 25.4801 0.444535 25.5797 0.829692 25.7789C2.93477 26.9078 5.69727 26.7617 7.64961 25.4336L8.04805 25.1613L8.60586 25.3605C9.22344 25.5863 10.193 25.8387 10.9566 25.9781C11.282 26.0312 11.9859 26.0644 13.0152 26.0644C14.4563 26.0578 14.6422 26.0445 15.4391 25.8785C18.9918 25.1215 22 23.116 23.9656 20.1875C27.1266 15.4727 26.8145 9.25703 23.1887 4.82774C22.5977 4.11055 21.3625 2.94844 20.6652 2.45703C18.8059 1.14219 16.9731 0.398439 14.8613 0.0996113C14.0047 -0.0199184 11.9992 -0.0199184 11.1891 0.106253ZM15.1004 2.25781C19.4899 3.12774 22.8633 6.46797 23.8527 10.9305C23.9723 11.4883 23.9988 11.8004 23.9988 13.0156C24.0055 14.2773 23.9856 14.5297 23.8461 15.1672C22.8965 19.6031 19.4699 22.9434 14.9277 23.8531C14.3102 23.9727 13.9648 23.9992 12.982 23.9992C11.3352 23.9992 10.1996 23.7734 8.77188 23.1691C7.82891 22.7641 7.56993 22.7973 6.83946 23.4016C6.08243 24.0324 5.22579 24.3644 4.20313 24.4176C3.61875 24.4508 2.82188 24.3711 2.64922 24.2648C2.62266 24.2516 2.70899 23.9859 2.83516 23.6738C3.37305 22.3324 3.57227 20.5926 3.35977 19.1383C3.29336 18.7199 3.03438 17.6441 2.75547 16.6746C2.48985 15.725 2.21758 14.6293 2.15118 14.2309C1.94532 12.9227 2.12461 11.123 2.5961 9.66875C2.875 8.82539 3.56563 7.45742 4.09688 6.70703C4.67461 5.89688 5.89649 4.675 6.70665 4.09727C8.14766 3.07461 10.0867 2.3375 11.9527 2.09844C12.5504 2.02539 14.3965 2.11836 15.1004 2.25781Z" fill="#18212E"/>
<path d="M6.58031 11.5812C5.68382 11.9066 5.28539 13.0223 5.75023 13.8855C6.54711 15.3465 8.76508 14.7887 8.77836 13.1152C8.785 12.1523 8.10101 11.475 7.13148 11.4949C6.95218 11.4949 6.70648 11.5348 6.58031 11.5812Z" fill="#18212E"/>
<path d="M12.3848 11.6078C11.7738 11.8934 11.4551 12.4113 11.4551 13.1152C11.4617 13.7859 11.7406 14.2574 12.3184 14.5629C12.6969 14.7621 13.4141 14.7621 13.7859 14.5629C14.9082 13.9719 14.9746 12.3781 13.9188 11.7207C13.5004 11.4617 12.8031 11.4152 12.3848 11.6078Z" fill="#18212E"/>
<path d="M18.2282 11.6477C17.8298 11.8336 17.6505 12.0195 17.4712 12.418C17.3052 12.7832 17.2919 13.3809 17.438 13.7328C17.5642 14.0383 17.8896 14.3836 18.2083 14.5496C18.972 14.9414 19.9216 14.6559 20.3599 13.8988C20.5192 13.6398 20.5458 13.507 20.5458 13.1219C20.5524 12.584 20.413 12.2652 20.0411 11.9066C19.5763 11.4617 18.8458 11.3555 18.2282 11.6477Z" fill="#18212E"/>
<path d="M29.683 11.8734C29.5369 11.9531 29.3974 12.1059 29.2912 12.3051C29.0455 12.7965 29.1185 13.0688 29.7162 13.859C30.606 15.0543 31.2103 16.2961 31.5689 17.6773C31.8545 18.7664 31.9076 19.2313 31.9076 20.5527C31.901 22.1066 31.7814 22.784 31.217 24.4441C30.6459 26.0977 30.5795 26.4828 30.5861 27.9238C30.5861 28.973 30.6127 29.2121 30.7654 29.8629C30.8584 30.2746 31.0377 30.8656 31.1638 31.1777L31.3896 31.7422L31.1506 31.8086C31.0177 31.8484 30.6592 31.8949 30.347 31.9215C29.258 31.9945 28.0494 31.6094 27.1927 30.9055C26.7146 30.5137 26.3959 30.3477 26.1435 30.3477C26.0439 30.3477 25.6322 30.4805 25.2271 30.6465C23.1154 31.523 20.9439 31.7289 18.7193 31.2773C17.0127 30.9254 15.4455 30.2016 14.0642 29.1125C13.5064 28.6742 13.2541 28.5746 12.8424 28.641C12.1916 28.7473 11.8263 29.491 12.1252 30.1219C12.3045 30.5004 13.5662 31.4367 14.7482 32.0676C15.8838 32.6719 17.3115 33.1566 18.726 33.4156C19.7752 33.6082 22.0861 33.6215 23.0756 33.4422C23.9654 33.2828 24.8818 33.0371 25.4662 32.8113L25.9443 32.6254L26.2033 32.818C26.615 33.1301 27.7373 33.648 28.3549 33.8141C28.8396 33.9469 29.0787 33.9668 30.0814 33.9668C31.0974 33.9668 31.3099 33.9469 31.7681 33.8141C33.2888 33.3758 33.933 32.8977 33.933 32.2203C33.933 32.1141 33.7736 31.7156 33.5744 31.3371C32.9236 30.0887 32.6713 29.1125 32.6713 27.8176C32.6713 26.8613 32.7775 26.3168 33.176 25.1879C33.8002 23.4348 33.9994 22.2926 33.9994 20.5195C33.9994 18.2816 33.581 16.4887 32.6049 14.543C32.1666 13.6664 31.5092 12.6637 31.051 12.1723C30.7123 11.807 30.6924 11.7938 30.3072 11.7738C30.015 11.7539 29.8556 11.7738 29.683 11.8734Z" fill="#18212E"/>
</g>
<defs>
<clipPath id="clip0_120_59">
<rect width="34" height="34" fill="white"/>
</clipPath>
</defs>
</svg>
