<svg width="50" height="50" viewBox="0 0 50 50" fill="none" xmlns="http://www.w3.org/2000/svg">
<circle cx="25" cy="25" r="25" fill="#00CAEB"/>
<path d="M34.0004 34C34.5971 34 35.1694 33.7629 35.5914 33.341C36.0133 32.919 36.2504 32.3467 36.2504 31.75V26.2555C36.2504 25.6588 36.0133 25.0865 35.5914 24.6645C35.1694 24.2426 34.5971 24.0055 34.0004 24.0055H30.8774C30.8774 23.2158 30.9246 22.4238 31.0169 21.634C31.1564 20.797 31.3904 20.0523 31.7144 19.402C32.0406 18.7495 32.4591 18.2387 32.9721 17.8652C33.4829 17.4467 34.1331 17.2375 34.9251 17.2375V13.75C33.6224 13.75 32.4839 14.029 31.5051 14.587C30.5349 15.1393 29.7007 15.902 29.0639 16.819C28.4247 17.83 27.9536 18.9378 27.6689 20.0995C27.382 21.3815 27.2416 22.6919 27.2504 24.0055V31.75C27.2504 32.3467 27.4874 32.919 27.9094 33.341C28.3314 33.7629 28.9037 34 29.5004 34H34.0004ZM20.5004 34C21.0971 34 21.6694 33.7629 22.0914 33.341C22.5133 32.919 22.7504 32.3467 22.7504 31.75V26.2555C22.7504 25.6588 22.5133 25.0865 22.0914 24.6645C21.6694 24.2426 21.0971 24.0055 20.5004 24.0055H17.3774C17.3774 23.2158 17.4246 22.4238 17.5169 21.634C17.6564 20.797 17.8904 20.0523 18.2144 19.402C18.5406 18.7495 18.9591 18.2387 19.4721 17.8652C19.9829 17.4467 20.6331 17.2375 21.4251 17.2375V13.75C20.1224 13.75 18.9839 14.029 18.0051 14.587C17.0349 15.1393 16.2007 15.902 15.5639 16.819C14.9247 17.83 14.4536 18.9378 14.1689 20.0995C13.882 21.3815 13.7416 22.6919 13.7504 24.0055V31.75C13.7504 32.3467 13.9874 32.919 14.4094 33.341C14.8314 33.7629 15.4037 34 16.0004 34H20.5004Z" fill="white"/>
</svg>
