<svg width="40" height="40" viewBox="0 0 40 40" fill="none" xmlns="http://www.w3.org/2000/svg">
<path d="M3.75 6.25C3.75 5.58696 4.01339 4.95107 4.48223 4.48223C4.95107 4.01339 5.58696 3.75 6.25 3.75H13.75C14.413 3.75 15.0489 4.01339 15.5178 4.48223C15.9866 4.95107 16.25 5.58696 16.25 6.25V13.75C16.25 14.413 15.9866 15.0489 15.5178 15.5178C15.0489 15.9866 14.413 16.25 13.75 16.25H6.25C5.58696 16.25 4.95107 15.9866 4.48223 15.5178C4.01339 15.0489 3.75 14.413 3.75 13.75V6.25ZM23.75 6.25C23.75 5.58696 24.0134 4.95107 24.4822 4.48223C24.9511 4.01339 25.587 3.75 26.25 3.75H33.75C34.413 3.75 35.0489 4.01339 35.5178 4.48223C35.9866 4.95107 36.25 5.58696 36.25 6.25V13.75C36.25 14.413 35.9866 15.0489 35.5178 15.5178C35.0489 15.9866 34.413 16.25 33.75 16.25H26.25C25.587 16.25 24.9511 15.9866 24.4822 15.5178C24.0134 15.0489 23.75 14.413 23.75 13.75V6.25ZM3.75 26.25C3.75 25.587 4.01339 24.9511 4.48223 24.4822C4.95107 24.0134 5.58696 23.75 6.25 23.75H13.75C14.413 23.75 15.0489 24.0134 15.5178 24.4822C15.9866 24.9511 16.25 25.587 16.25 26.25V33.75C16.25 34.413 15.9866 35.0489 15.5178 35.5178C15.0489 35.9866 14.413 36.25 13.75 36.25H6.25C5.58696 36.25 4.95107 35.9866 4.48223 35.5178C4.01339 35.0489 3.75 34.413 3.75 33.75V26.25ZM23.75 26.25C23.75 25.587 24.0134 24.9511 24.4822 24.4822C24.9511 24.0134 25.587 23.75 26.25 23.75H33.75C34.413 23.75 35.0489 24.0134 35.5178 24.4822C35.9866 24.9511 36.25 25.587 36.25 26.25V33.75C36.25 34.413 35.9866 35.0489 35.5178 35.5178C35.0489 35.9866 34.413 36.25 33.75 36.25H26.25C25.587 36.25 24.9511 35.9866 24.4822 35.5178C24.0134 35.0489 23.75 34.413 23.75 33.75V26.25Z" stroke="white" stroke-width="2.5"/>
</svg>
